<svg xmlns="http://www.w3.org/2000/svg" data-name="Layer 2" viewBox="0 0 100 100" id="bandage"><path d="M7.39,71.88,28.12,92.61a7.69,7.69,0,0,0,10.87,0l11-11,11,11a7.67,7.67,0,0,0,10.87,0L92.61,71.88a7.67,7.67,0,0,0,0-10.87l-11-11,11-11a7.69,7.69,0,0,0,0-10.87L71.88,7.39A7.67,7.67,0,0,0,61,7.39l-11,11-11-11a7.67,7.67,0,0,0-10.87,0L7.39,28.12A7.69,7.69,0,0,0,7.39,39l11,11-11,11A7.69,7.69,0,0,0,7.39,71.88ZM91.2,62.42a5.7,5.7,0,0,1,0,8L70.47,91.2a5.7,5.7,0,0,1-8,0l-11-11,2.42-2.42,7.63,7.63a7.7,7.7,0,0,0,10.88,0L85.4,72.34a7.7,7.7,0,0,0,0-10.88l-7.63-7.63,2.42-2.42Zm-36,13.94L76.36,55.24,84,62.87a5.7,5.7,0,0,1,0,8.05L70.92,84a5.7,5.7,0,0,1-8.05,0ZM8.8,37.58a5.7,5.7,0,0,1,0-8L29.53,8.8a5.69,5.69,0,0,1,8,0l11,11-2.42,2.42L38.54,14.6a7.7,7.7,0,0,0-10.88,0L14.6,27.66a7.7,7.7,0,0,0,0,10.88l7.63,7.63-2.42,2.42Zm36-13.94L34.2,34.2,23.64,44.76,16,37.13a5.7,5.7,0,0,1,0-8.05L29.08,16a5.71,5.71,0,0,1,8.05,0ZM20.52,50.71,62.42,8.8a5.69,5.69,0,0,1,8,0L91.2,29.53a5.7,5.7,0,0,1,0,8L79.48,49.29h0l-3.83,3.83L53.12,75.65l-3.83,3.83h0L37.58,91.2a5.7,5.7,0,0,1-8,0L8.8,70.47a5.7,5.7,0,0,1,0-8Z" fill="#42a9d0" class="color000000 svgShape"></path><path d="M27.66,85.4a7.7,7.7,0,0,0,10.88,0L85.4,38.54a7.7,7.7,0,0,0,0-10.88L72.34,14.6a7.7,7.7,0,0,0-10.88,0L14.6,61.46a7.7,7.7,0,0,0,0,10.88ZM16,62.87,62.87,16a5.71,5.71,0,0,1,8.05,0L84,29.08a5.7,5.7,0,0,1,0,8.05L37.13,84a5.7,5.7,0,0,1-8.05,0L16,70.92A5.7,5.7,0,0,1,16,62.87Z" fill="#42a9d0" class="color000000 svgShape"></path><path d="M50 42.36a3.63 3.63 0 1 0-2.57-1.06A3.62 3.62 0 0 0 50 42.36zm-1.15-4.78a1.63 1.63 0 1 1 0 2.31A1.64 1.64 0 0 1 48.85 37.58zM61.26 53.63a3.63 3.63 0 1 0-2.56-1.06A3.66 3.66 0 0 0 61.26 53.63zm-1.15-4.78a1.63 1.63 0 1 1 0 2.3A1.63 1.63 0 0 1 60.11 48.85zM38.74 53.63a3.63 3.63 0 1 0-2.57-1.06A3.65 3.65 0 0 0 38.74 53.63zm-1.16-4.78a1.63 1.63 0 1 1 0 2.3A1.64 1.64 0 0 1 37.58 48.85zM47.43 58.7a3.63 3.63 0 1 0 5.14 0A3.64 3.64 0 0 0 47.43 58.7zm3.72 3.72a1.63 1.63 0 0 1-2.3-2.31 1.64 1.64 0 0 1 2.3 0A1.63 1.63 0 0 1 51.15 62.42zM47.43 47.43a3.63 3.63 0 1 0 5.14 0A3.65 3.65 0 0 0 47.43 47.43zm3.72 3.72a1.63 1.63 0 1 1 0-2.3A1.62 1.62 0 0 1 51.15 51.15z" fill="#42a9d0" class="color000000 svgShape"></path></svg>